<svg width="294" height="20" viewBox="0 0 294 20" fill="none" xmlns="http://www.w3.org/2000/svg">
<path d="M10 20C8.61667 20 7.31667 19.7375 6.1 19.2125C4.88333 18.6875 3.825 17.975 2.925 17.075C2.025 16.175 1.3125 15.1167 0.7875 13.9C0.2625 12.6833 0 11.3833 0 10C0 8.61667 0.2625 7.31667 0.7875 6.1C1.3125 4.88333 2.025 3.825 2.925 2.925C3.825 2.025 4.88333 1.3125 6.1 0.7875C7.31667 0.2625 8.61667 0 10 0C11.3833 0 12.6833 0.2625 13.9 0.7875C15.1167 1.3125 16.175 2.025 17.075 2.925C17.975 3.825 18.6875 4.88333 19.2125 6.1C19.7375 7.31667 20 8.61667 20 10C20 11.3833 19.7375 12.6833 19.2125 13.9C18.6875 15.1167 17.975 16.175 17.075 17.075C16.175 17.975 15.1167 18.6875 13.9 19.2125C12.6833 19.7375 11.3833 20 10 20ZM9 17.95V16C8.45 16 7.97917 15.8042 7.5875 15.4125C7.19583 15.0208 7 14.55 7 14V13L2.2 8.2C2.15 8.5 2.10417 8.8 2.0625 9.1C2.02083 9.4 2 9.7 2 10C2 12.0167 2.6625 13.7833 3.9875 15.3C5.3125 16.8167 6.98333 17.7 9 17.95ZM15.9 15.4C16.5833 14.65 17.1042 13.8125 17.4625 12.8875C17.8208 11.9625 18 11 18 10C18 8.36667 17.5458 6.875 16.6375 5.525C15.7292 4.175 14.5167 3.2 13 2.6V3C13 3.55 12.8042 4.02083 12.4125 4.4125C12.0208 4.80417 11.55 5 11 5H9V7C9 7.28333 8.90417 7.52083 8.7125 7.7125C8.52083 7.90417 8.28333 8 8 8H6V10H12C12.2833 10 12.5208 10.0958 12.7125 10.2875C12.9042 10.4792 13 10.7167 13 11V14H14C14.4333 14 14.825 14.1292 15.175 14.3875C15.525 14.6458 15.7667 14.9833 15.9 15.4Z" fill="#795900"/>
<path d="M51 20C50.1667 20 49.4583 19.7083 48.875 19.125C48.2917 18.5417 48 17.8333 48 17C48 16.9 48.025 16.6667 48.075 16.3L41.05 12.2C40.7833 12.45 40.475 12.6458 40.125 12.7875C39.775 12.9292 39.4 13 39 13C38.1667 13 37.4583 12.7083 36.875 12.125C36.2917 11.5417 36 10.8333 36 10C36 9.16667 36.2917 8.45833 36.875 7.875C37.4583 7.29167 38.1667 7 39 7C39.4 7 39.775 7.07083 40.125 7.2125C40.475 7.35417 40.7833 7.55 41.05 7.8L48.075 3.7C48.0417 3.58333 48.0208 3.47083 48.0125 3.3625C48.0042 3.25417 48 3.13333 48 3C48 2.16667 48.2917 1.45833 48.875 0.875C49.4583 0.291667 50.1667 0 51 0C51.8333 0 52.5417 0.291667 53.125 0.875C53.7083 1.45833 54 2.16667 54 3C54 3.83333 53.7083 4.54167 53.125 5.125C52.5417 5.70833 51.8333 6 51 6C50.6 6 50.225 5.92917 49.875 5.7875C49.525 5.64583 49.2167 5.45 48.95 5.2L41.925 9.3C41.9583 9.41667 41.9792 9.52917 41.9875 9.6375C41.9958 9.74583 42 9.86667 42 10C42 10.1333 41.9958 10.2542 41.9875 10.3625C41.9792 10.4708 41.9583 10.5833 41.925 10.7L48.95 14.8C49.2167 14.55 49.525 14.3542 49.875 14.2125C50.225 14.0708 50.6 14 51 14C51.8333 14 52.5417 14.2917 53.125 14.875C53.7083 15.4583 54 16.1667 54 17C54 17.8333 53.7083 18.5417 53.125 19.125C52.5417 19.7083 51.8333 20 51 20ZM51 18C51.2833 18 51.5208 17.9042 51.7125 17.7125C51.9042 17.5208 52 17.2833 52 17C52 16.7167 51.9042 16.4792 51.7125 16.2875C51.5208 16.0958 51.2833 16 51 16C50.7167 16 50.4792 16.0958 50.2875 16.2875C50.0958 16.4792 50 16.7167 50 17C50 17.2833 50.0958 17.5208 50.2875 17.7125C50.4792 17.9042 50.7167 18 51 18ZM39 11C39.2833 11 39.5208 10.9042 39.7125 10.7125C39.9042 10.5208 40 10.2833 40 10C40 9.71667 39.9042 9.47917 39.7125 9.2875C39.5208 9.09583 39.2833 9 39 9C38.7167 9 38.4792 9.09583 38.2875 9.2875C38.0958 9.47917 38 9.71667 38 10C38 10.2833 38.0958 10.5208 38.2875 10.7125C38.4792 10.9042 38.7167 11 39 11ZM51 4C51.2833 4 51.5208 3.90417 51.7125 3.7125C51.9042 3.52083 52 3.28333 52 3C52 2.71667 51.9042 2.47917 51.7125 2.2875C51.5208 2.09583 51.2833 2 51 2C50.7167 2 50.4792 2.09583 50.2875 2.2875C50.0958 2.47917 50 2.71667 50 3C50 3.28333 50.0958 3.52083 50.2875 3.7125C50.4792 3.90417 50.7167 4 51 4Z" fill="#795900"/>
</svg>
