<svg width="50" height="20" viewBox="0 0 50 20" fill="none" xmlns="http://www.w3.org/2000/svg">
<path d="M16.6 19L10.3 12.7C9.8 13.1 9.225 13.4167 8.575 13.65C7.925 13.8833 7.23333 14 6.5 14C4.68333 14 3.14583 13.3708 1.8875 12.1125C0.629167 10.8542 0 9.31667 0 7.5C0 5.68333 0.629167 4.14583 1.8875 2.8875C3.14583 1.62917 4.68333 1 6.5 1C8.31667 1 9.85417 1.62917 11.1125 2.8875C12.3708 4.14583 13 5.68333 13 7.5C13 8.23333 12.8833 8.925 12.65 9.575C12.4167 10.225 12.1 10.8 11.7 11.3L18 17.6L16.6 19ZM6.5 12C7.75 12 8.8125 11.5625 9.6875 10.6875C10.5625 9.8125 11 8.75 11 7.5C11 6.25 10.5625 5.1875 9.6875 4.3125C8.8125 3.4375 7.75 3 6.5 3C5.25 3 4.1875 3.4375 3.3125 4.3125C2.4375 5.1875 2 6.25 2 7.5C2 8.75 2.4375 9.8125 3.3125 10.6875C4.1875 11.5625 5.25 12 6.5 12Z" fill="#795900"/>
<path d="M35.99 20C35.44 20 34.9692 19.8042 34.5775 19.4125C34.1858 19.0208 33.99 18.55 33.99 18V6C33.99 5.45 34.1858 4.97917 34.5775 4.5875C34.9692 4.19583 35.44 4 35.99 4H37.99C37.99 2.9 38.3817 1.95833 39.165 1.175C39.9483 0.391667 40.89 0 41.99 0C43.09 0 44.0317 0.391667 44.815 1.175C45.5983 1.95833 45.99 2.9 45.99 4H47.99C48.54 4 49.0108 4.19583 49.4025 4.5875C49.7942 4.97917 49.99 5.45 49.99 6V18C49.99 18.55 49.7942 19.0208 49.4025 19.4125C49.0108 19.8042 48.54 20 47.99 20H35.99ZM35.99 18H47.99V6H45.99V8C45.99 8.28333 45.8942 8.52083 45.7025 8.7125C45.5108 8.90417 45.2733 9 44.99 9C44.7067 9 44.4692 8.90417 44.2775 8.7125C44.0858 8.52083 43.99 8.28333 43.99 8V6H39.99V8C39.99 8.28333 39.8942 8.52083 39.7025 8.7125C39.5108 8.90417 39.2733 9 38.99 9C38.7067 9 38.4692 8.90417 38.2775 8.7125C38.0858 8.52083 37.99 8.28333 37.99 8V6H35.99V18ZM39.99 4H43.99C43.99 3.45 43.7942 2.97917 43.4025 2.5875C43.0108 2.19583 42.54 2 41.99 2C41.44 2 40.9692 2.19583 40.5775 2.5875C40.1858 2.97917 39.99 3.45 39.99 4ZM35.99 18V6V18Z" fill="#795900"/>
</svg>
